<?xml version="1.0" encoding="utf-8"?>
<!-- Generator: Adobe Illustrator 15.0.0, SVG Export Plug-In . SVG Version: 6.00 Build 0)  -->
<!DOCTYPE svg PUBLIC "-//W3C//DTD SVG 1.1//EN" "http://www.w3.org/Graphics/SVG/1.1/DTD/svg11.dtd">
<svg version="1.1" id="Layer_1" xmlns="http://www.w3.org/2000/svg" xmlns:xlink="http://www.w3.org/1999/xlink" x="0px" y="0px"
	 width="251.396px" height="143.68px" viewBox="190.873 79.303 251.396 143.68"
	 enable-background="new 190.873 79.303 251.396 143.68" xml:space="preserve">
<g>
	<g>
		<defs>
			<rect id="SVGID_1_" x="190.873" y="79.303" width="251.396" height="143.68"/>
		</defs>
		<clipPath id="SVGID_2_">
			<use xlink:href="#SVGID_1_"  overflow="visible"/>
		</clipPath>
		<path clip-path="url(#SVGID_2_)" fill="#004E7E" d="M195.5,219.63c-2.784,0-3.798-2.97-3.798-6.636
			c0-3.739,1.125-6.668,3.854-6.668c2.154,0,3.039,1.309,3.353,3.15l-1.825,0.457c-0.238-1.162-0.588-1.785-1.583-1.785
			c-1.565,0-1.937,2.539-1.937,4.808c0,2.378,0.498,4.849,2.064,4.849c0.867,0,1.273-0.588,1.623-1.973l1.676,0.535
			C198.521,218.302,197.62,219.63,195.5,219.63"/>
	</g>
	<g>
		<defs>
			<rect id="SVGID_3_" x="190.873" y="79.303" width="251.396" height="143.68"/>
		</defs>
		<clipPath id="SVGID_4_">
			<use xlink:href="#SVGID_3_"  overflow="visible"/>
		</clipPath>
		<path clip-path="url(#SVGID_4_)" fill="#004E7E" d="M204.99,219.427v-5.954c0-1.603-0.312-2.248-1.198-2.248
			c-0.553,0-1.086,0.315-1.437,0.889v7.313h-1.768v-12.512l1.768-0.922v4.419c0.385-0.497,1.049-0.863,1.879-0.863
			c1.863,0,2.524,1.197,2.524,3.631v6.247H204.99z"/>
	</g>
	<g>
		<defs>
			<rect id="SVGID_5_" x="190.873" y="79.303" width="251.396" height="143.68"/>
		</defs>
		<clipPath id="SVGID_6_">
			<use xlink:href="#SVGID_5_"  overflow="visible"/>
		</clipPath>
		<path clip-path="url(#SVGID_6_)" fill="#004E7E" d="M208.898,209.752h1.77v9.675h-1.77V209.752z M209.784,208.241
			c-0.609,0-1.106-0.5-1.106-1.087c0-0.607,0.497-1.107,1.106-1.107c0.589,0,1.087,0.5,1.087,1.107
			C210.872,207.741,210.373,208.241,209.784,208.241"/>
	</g>
</g>
<polygon fill="#004E7E" points="212.952,206.915 212.952,219.427 214.723,219.427 214.723,205.993 "/>
<g>
	<g>
		<defs>
			<rect id="SVGID_7_" x="190.873" y="79.303" width="251.396" height="143.68"/>
		</defs>
		<clipPath id="SVGID_8_">
			<use xlink:href="#SVGID_7_"  overflow="visible"/>
		</clipPath>
		<path clip-path="url(#SVGID_8_)" fill="#004E7E" d="M221.302,212.073c-0.389-0.589-0.978-0.867-1.53-0.867
			c-0.92,0-1.4,0.905-1.4,3.188c0,2.528,0.479,3.58,1.496,3.58c0.587,0,1.121-0.371,1.435-0.887V212.073z M221.302,219.427v-0.642
			c-0.458,0.492-0.94,0.845-1.805,0.845c-1.752,0-2.912-1.289-2.912-5.144c0-3.228,1.125-4.938,3.041-4.938
			c0.679,0,1.198,0.224,1.676,0.72v-3.354l1.771-0.922v13.434L221.302,219.427L221.302,219.427z"/>
	</g>
	<g>
		<defs>
			<rect id="SVGID_9_" x="190.873" y="79.303" width="251.396" height="143.68"/>
		</defs>
		<clipPath id="SVGID_10_">
			<use xlink:href="#SVGID_9_"  overflow="visible"/>
		</clipPath>
		<path clip-path="url(#SVGID_10_)" fill="#004E7E" d="M229.559,211.648c-0.351-0.203-0.682-0.295-1.234-0.295
			c-0.499,0-0.979,0.164-1.383,0.758v7.314h-1.769v-9.675h1.769v0.66c0.39-0.497,0.996-0.863,1.715-0.863
			c0.607,0,1.031,0.146,1.326,0.334L229.559,211.648z"/>
	</g>
	<g>
		<defs>
			<rect id="SVGID_11_" x="190.873" y="79.303" width="251.396" height="143.68"/>
		</defs>
		<clipPath id="SVGID_12_">
			<use xlink:href="#SVGID_11_"  overflow="visible"/>
		</clipPath>
		<path clip-path="url(#SVGID_12_)" fill="#004E7E" d="M234.443,211.21c-0.905,0-1.476,0.791-1.623,2.451h3.264
			C236.029,212.223,235.438,211.21,234.443,211.21 M237.871,215.189h-5.069c0.113,1.916,0.792,2.744,1.824,2.744
			c0.812,0,1.201-0.203,1.752-0.718l1.088,1.124c-0.664,0.735-1.64,1.289-2.876,1.289c-2.303,0-3.557-1.954-3.557-4.995
			c0-3.392,1.4-5.086,3.447-5.086c1.934,0,3.412,1.64,3.412,5.013C237.891,214.727,237.891,215.002,237.871,215.189"/>
	</g>
	<g>
		<defs>
			<rect id="SVGID_13_" x="190.873" y="79.303" width="251.396" height="143.68"/>
		</defs>
		<clipPath id="SVGID_14_">
			<use xlink:href="#SVGID_13_"  overflow="visible"/>
		</clipPath>
		<path clip-path="url(#SVGID_14_)" fill="#004E7E" d="M244.062,219.427v-5.954c0-1.603-0.312-2.248-1.194-2.248
			c-0.556,0-1.091,0.315-1.438,0.889v7.313h-1.771v-9.675h1.771v0.66c0.387-0.497,1.049-0.863,1.879-0.863
			c1.863,0,2.524,1.197,2.524,3.631v6.247H244.062z"/>
	</g>
</g>
<polygon fill="#004E7E" points="249.169,210.932 247.973,210.932 248.211,206.523 250.404,206.523 "/>
<g>
	<g>
		<defs>
			<rect id="SVGID_15_" x="190.873" y="79.303" width="251.396" height="143.68"/>
		</defs>
		<clipPath id="SVGID_16_">
			<use xlink:href="#SVGID_15_"  overflow="visible"/>
		</clipPath>
		<path clip-path="url(#SVGID_16_)" fill="#004E7E" d="M254.752,219.63c-1.031,0-2.119-0.405-2.964-1.032l0.679-1.476
			c0.885,0.554,1.604,0.829,2.251,0.829c0.792,0,1.269-0.422,1.269-1.049c0-0.685-0.516-1.031-1.86-1.805
			c-1.196-0.705-2.009-1.33-2.009-2.858c0-1.679,1.016-2.69,2.766-2.69c0.977,0,1.915,0.354,2.637,0.903l-0.722,1.489
			c-0.624-0.438-1.345-0.717-1.952-0.717c-0.664,0-0.959,0.369-0.959,0.849c0,0.592,0.278,0.883,1.584,1.64
			c1.457,0.85,2.287,1.477,2.287,3.061C257.757,218.616,256.633,219.63,254.752,219.63"/>
	</g>
	<g>
		<defs>
			<rect id="SVGID_17_" x="190.873" y="79.303" width="251.396" height="143.68"/>
		</defs>
		<clipPath id="SVGID_18_">
			<use xlink:href="#SVGID_17_"  overflow="visible"/>
		</clipPath>
		<path clip-path="url(#SVGID_18_)" fill="#004E7E" d="M267.139,219.63c-2.783,0-3.798-2.97-3.798-6.636
			c0-3.739,1.125-6.668,3.853-6.668c2.16,0,3.043,1.309,3.354,3.15l-1.823,0.457c-0.24-1.162-0.59-1.785-1.584-1.785
			c-1.57,0-1.938,2.539-1.938,4.808c0,2.378,0.5,4.849,2.064,4.849c0.867,0,1.272-0.588,1.623-1.973l1.676,0.535
			C270.159,218.302,269.258,219.63,267.139,219.63"/>
	</g>
	<g>
		<defs>
			<rect id="SVGID_19_" x="190.873" y="79.303" width="251.396" height="143.68"/>
		</defs>
		<clipPath id="SVGID_20_">
			<use xlink:href="#SVGID_19_"  overflow="visible"/>
		</clipPath>
		<path clip-path="url(#SVGID_20_)" fill="#004E7E" d="M276.814,219.427v-5.954c0-1.603-0.313-2.248-1.197-2.248
			c-0.553,0-1.088,0.315-1.439,0.889v7.313h-1.77v-12.512l1.77-0.922v4.419c0.389-0.497,1.053-0.863,1.881-0.863
			c1.864,0,2.527,1.197,2.527,3.631v6.247H276.814z"/>
	</g>
	<g>
		<defs>
			<rect id="SVGID_21_" x="190.873" y="79.303" width="251.396" height="143.68"/>
		</defs>
		<clipPath id="SVGID_22_">
			<use xlink:href="#SVGID_21_"  overflow="visible"/>
		</clipPath>
		<path clip-path="url(#SVGID_22_)" fill="#004E7E" d="M284.777,215.189c-0.422-0.26-0.793-0.371-1.455-0.371
			c-0.829,0-1.403,0.481-1.403,1.529c0,1.145,0.46,1.68,1.218,1.68c0.756,0,1.309-0.334,1.641-0.902V215.189L284.777,215.189z
			 M284.777,219.427v-0.661c-0.498,0.57-1.125,0.864-1.991,0.864c-1.417,0-2.636-1.071-2.636-3.244c0-2.1,1.311-3.17,3.152-3.17
			c0.592,0,1.088,0.132,1.475,0.313v-0.938c0-0.938-0.313-1.385-1.252-1.385c-0.608,0-1.161,0.168-1.896,0.61l-0.759-1.346
			c0.886-0.589,1.899-0.923,2.784-0.923c2.083,0,2.892,0.736,2.892,2.89v6.988L284.777,219.427L284.777,219.427z"/>
	</g>
	<g>
		<defs>
			<rect id="SVGID_23_" x="190.873" y="79.303" width="251.396" height="143.68"/>
		</defs>
		<clipPath id="SVGID_24_">
			<use xlink:href="#SVGID_23_"  overflow="visible"/>
		</clipPath>
		<path clip-path="url(#SVGID_24_)" fill="#004E7E" d="M297.068,219.427v-5.954c0-1.603-0.127-2.248-1.01-2.248
			c-0.556,0-1.09,0.315-1.44,0.889v7.313h-1.771v-5.954c0-1.603-0.127-2.248-1.012-2.248c-0.554,0-1.089,0.315-1.438,0.889v7.313
			h-1.77v-9.675h1.77v0.66c0.386-0.497,0.978-0.863,1.806-0.863c0.958,0,1.548,0.334,1.955,1.029
			c0.68-0.773,1.399-1.029,2.267-1.029c1.934,0,2.415,1.251,2.415,3.816v6.062H297.068z"/>
	</g>
	<g>
		<defs>
			<rect id="SVGID_25_" x="190.873" y="79.303" width="251.396" height="143.68"/>
		</defs>
		<clipPath id="SVGID_26_">
			<use xlink:href="#SVGID_25_"  overflow="visible"/>
		</clipPath>
		<path clip-path="url(#SVGID_26_)" fill="#004E7E" d="M304.093,211.21c-0.589,0-1.124,0.362-1.438,0.883v5.013
			c0.387,0.59,0.977,0.869,1.529,0.869c0.922,0,1.403-0.908,1.403-3.19C305.587,212.261,305.105,211.21,304.093,211.21
			 M304.334,219.63c-0.686,0-1.202-0.223-1.679-0.72v3.15l-1.771,0.922v-13.23h1.771v0.646c0.46-0.496,0.937-0.85,1.806-0.85
			c1.752,0,2.913,1.287,2.913,5.141C307.374,217.917,306.25,219.63,304.334,219.63"/>
	</g>
	<g>
		<defs>
			<rect id="SVGID_27_" x="190.873" y="79.303" width="251.396" height="143.68"/>
		</defs>
		<clipPath id="SVGID_28_">
			<use xlink:href="#SVGID_27_"  overflow="visible"/>
		</clipPath>
		<path clip-path="url(#SVGID_28_)" fill="#004E7E" d="M309.234,209.752h1.77v9.675h-1.77V209.752z M310.12,208.241
			c-0.606,0-1.104-0.5-1.104-1.087c0-0.607,0.498-1.107,1.104-1.107c0.59,0,1.086,0.5,1.086,1.107
			C311.206,207.741,310.71,208.241,310.12,208.241"/>
	</g>
	<g>
		<defs>
			<rect id="SVGID_29_" x="190.873" y="79.303" width="251.396" height="143.68"/>
		</defs>
		<clipPath id="SVGID_30_">
			<use xlink:href="#SVGID_29_"  overflow="visible"/>
		</clipPath>
		<path clip-path="url(#SVGID_30_)" fill="#004E7E" d="M316.33,211.243c-1.104,0-1.676,1.146-1.676,3.354s0.59,3.336,1.695,3.336
			c1.104,0,1.693-1.324,1.693-3.336C318.043,212.404,317.436,211.243,316.33,211.243 M316.293,219.63
			c-2.009,0-3.426-1.603-3.426-4.995c0-3.392,1.346-5.086,3.5-5.086c2.044,0,3.465,1.641,3.465,5.014
			C319.833,217.951,318.432,219.63,316.293,219.63"/>
	</g>
	<g>
		<defs>
			<rect id="SVGID_31_" x="190.873" y="79.303" width="251.396" height="143.68"/>
		</defs>
		<clipPath id="SVGID_32_">
			<use xlink:href="#SVGID_31_"  overflow="visible"/>
		</clipPath>
		<path clip-path="url(#SVGID_32_)" fill="#004E7E" d="M326.006,219.427v-5.954c0-1.603-0.312-2.248-1.193-2.248
			c-0.556,0-1.09,0.315-1.44,0.889v7.313h-1.771v-9.675h1.771v0.66c0.388-0.497,1.05-0.863,1.879-0.863
			c1.86,0,2.524,1.197,2.524,3.631v6.247H326.006z"/>
	</g>
	<g>
		<defs>
			<rect id="SVGID_33_" x="190.873" y="79.303" width="251.396" height="143.68"/>
		</defs>
		<clipPath id="SVGID_34_">
			<use xlink:href="#SVGID_33_"  overflow="visible"/>
		</clipPath>
		<path clip-path="url(#SVGID_34_)" fill="#004E7E" d="M332.234,219.63c-1.029,0-2.12-0.405-2.965-1.032l0.682-1.476
			c0.883,0.554,1.604,0.829,2.25,0.829c0.791,0,1.27-0.422,1.27-1.049c0-0.685-0.517-1.031-1.861-1.805
			c-1.198-0.705-2.008-1.33-2.008-2.858c0-1.679,1.013-2.69,2.764-2.69c0.977,0,1.917,0.354,2.636,0.903l-0.719,1.489
			c-0.626-0.438-1.345-0.717-1.955-0.717c-0.664,0-0.956,0.369-0.956,0.849c0,0.592,0.273,0.883,1.583,1.64
			c1.457,0.85,2.287,1.477,2.287,3.061C335.241,218.616,334.115,219.63,332.234,219.63"/>
	</g>
	<g>
		<defs>
			<rect id="SVGID_35_" x="190.873" y="79.303" width="251.396" height="143.68"/>
		</defs>
		<clipPath id="SVGID_36_">
			<use xlink:href="#SVGID_35_"  overflow="visible"/>
		</clipPath>
		<path clip-path="url(#SVGID_36_)" fill="#6EBE4A" d="M213.977,103.818h-3.656l-3.76-15.584c-0.207-0.828-0.584-2.62-0.688-3.207
			c-0.104,0.587-0.48,2.379-0.689,3.207l-3.931,15.584h-3.585l-4.934-24.137h3.658l2.895,15.243
			c0.139,0.722,0.449,2.377,0.551,3.171c0.141-0.794,0.485-2.416,0.656-3.138l3.861-15.276h3.103l3.933,15.62
			c0.172,0.655,0.448,1.931,0.584,2.794c0.172-0.897,0.379-2.242,0.484-2.828l2.932-15.586h3.517L213.977,103.818z"/>
	</g>
</g>
<polygon fill="#6EBE4A" points="224.328,79.684 224.328,103.818 240.395,103.818 240.395,100.3 227.949,100.3 227.949,92.682 
	234.878,92.682 234.878,89.166 227.949,89.166 227.949,83.2 239.88,83.2 239.88,79.684 "/>
<g>
	<g>
		<defs>
			<rect id="SVGID_37_" x="190.873" y="79.303" width="251.396" height="143.68"/>
		</defs>
		<clipPath id="SVGID_38_">
			<use xlink:href="#SVGID_37_"  overflow="visible"/>
		</clipPath>
		<path clip-path="url(#SVGID_38_)" fill="#6EBE4A" d="M253.332,104.197c-3.52,0-6.555-1.518-8.586-3.896l2.587-2.516
			c1.62,1.757,3.998,2.861,6.274,2.861c3.379,0,4.998-1.172,4.998-3.519c0-1.862-1.412-2.792-5.446-3.998
			c-5.104-1.517-7.556-2.793-7.556-7.103c0-4.174,3.521-6.726,7.969-6.726c3.273,0,5.759,1.208,7.896,3.274l-2.553,2.587
			c-1.517-1.552-3.243-2.312-5.621-2.312c-2.826,0-4.03,1.379-4.03,3.002c0,1.688,1.103,2.516,5.274,3.758
			c4.758,1.447,7.724,2.963,7.724,7.273C262.262,101.232,259.503,104.197,253.332,104.197"/>
	</g>
</g>
<polygon fill="#6EBE4A" points="265.445,79.684 265.445,83.234 272.48,83.234 272.48,103.818 276.102,103.818 276.102,83.234 
	283.135,83.234 283.135,79.684 "/>
<g>
	<g>
		<defs>
			<rect id="SVGID_39_" x="190.873" y="79.303" width="251.396" height="143.68"/>
		</defs>
		<clipPath id="SVGID_40_">
			<use xlink:href="#SVGID_39_"  overflow="visible"/>
		</clipPath>
		<path clip-path="url(#SVGID_40_)" fill="#6EBE4A" d="M296.249,104.197c-6.24,0-10.204-5.139-10.204-12.446
			s3.964-12.446,10.204-12.446c3.933,0,6.554,1.586,8.208,4.518l-3.207,1.996c-1.242-1.963-2.52-2.896-5.001-2.896
			c-4.207,0-6.483,3.418-6.483,8.828c0,5.414,2.276,8.828,6.483,8.828c2.519,0,4.069-1.036,5.313-2.998l2.998,1.999
			C302.837,102.543,299.906,104.197,296.249,104.197"/>
	</g>
</g>
<polygon fill="#6EBE4A" points="325.047,79.684 325.047,89.441 313.945,89.441 313.945,79.684 310.324,79.684 310.324,103.818 
	313.945,103.818 313.945,92.993 325.047,92.993 325.047,103.818 328.667,103.818 328.667,79.684 "/>
<polygon fill="#6EBE4A" points="336.768,79.684 336.768,103.818 352.835,103.818 352.835,100.3 340.389,100.3 340.389,92.682 
	347.318,92.682 347.318,89.166 340.389,89.166 340.389,83.2 352.32,83.2 352.32,79.684 "/>
<g>
	<g>
		<defs>
			<rect id="SVGID_41_" x="190.873" y="79.303" width="251.396" height="143.68"/>
		</defs>
		<clipPath id="SVGID_42_">
			<use xlink:href="#SVGID_41_"  overflow="visible"/>
		</clipPath>
		<path clip-path="url(#SVGID_42_)" fill="#6EBE4A" d="M365.773,104.197c-3.518,0-6.553-1.518-8.586-3.896l2.586-2.516
			c1.621,1.757,4,2.861,6.275,2.861c3.381,0,5-1.172,5-3.519c0-1.862-1.414-2.792-5.449-3.998c-5.102-1.517-7.549-2.793-7.549-7.103
			c0-4.174,3.516-6.726,7.965-6.726c3.275,0,5.758,1.208,7.896,3.274l-2.553,2.587c-1.519-1.552-3.24-2.312-5.621-2.312
			c-2.829,0-4.032,1.379-4.032,3.002c0,1.688,1.103,2.516,5.274,3.758c4.758,1.447,7.725,2.963,7.725,7.273
			C374.704,101.232,371.947,104.197,365.773,104.197"/>
	</g>
</g>
<polygon fill="#6EBE4A" points="379.154,79.684 379.154,83.234 386.189,83.234 386.189,103.818 389.812,103.818 389.812,83.234 
	396.848,83.234 396.848,79.684 "/>
<polygon fill="#6EBE4A" points="402.16,79.684 402.16,103.818 418.229,103.818 418.229,100.3 405.781,100.3 405.781,92.682 
	412.712,92.682 412.712,89.166 405.781,89.166 405.781,83.2 417.71,83.2 417.71,79.684 "/>
<g>
	<g>
		<defs>
			<rect id="SVGID_43_" x="190.873" y="79.303" width="251.396" height="143.68"/>
		</defs>
		<clipPath id="SVGID_44_">
			<use xlink:href="#SVGID_43_"  overflow="visible"/>
		</clipPath>
		<path clip-path="url(#SVGID_44_)" fill="#6EBE4A" d="M434.51,83.098h-7.037v7.756h7.037c2.414,0,4.104-1.239,4.104-3.862
			C438.613,84.477,436.958,83.098,434.51,83.098 M436.958,93.957l4.928,9.863h-4.17l-4.794-9.553h-5.449v9.553h-3.548V79.682h10.585
			c4.207,0,7.759,2.245,7.759,7.207C442.269,90.753,440.232,93.131,436.958,93.957"/>
	</g>
	<g>
		<defs>
			<rect id="SVGID_45_" x="190.873" y="79.303" width="251.396" height="143.68"/>
		</defs>
		<clipPath id="SVGID_46_">
			<use xlink:href="#SVGID_45_"  overflow="visible"/>
		</clipPath>
		<path clip-path="url(#SVGID_46_)" fill="#004E7E" d="M203.32,137.891c-7.17,0-10.997-5.312-10.997-12.449
			c0-7.756,4.55-12.448,11.032-12.448c5.931,0,8.275,2.554,9.931,7.103l-6.07,2.381c-0.86-2.244-1.688-3.656-3.896-3.656
			c-2.793,0-4,2.793-4,6.621c0,3.69,1.172,6.621,4.068,6.621c2.104,0,3.002-1.137,4.311-3.414l5.656,2.996
			C211.736,134.82,209.046,137.891,203.32,137.891"/>
	</g>
</g>
<polygon fill="#004E7E" points="233.533,137.511 233.533,127.996 226.016,127.996 226.016,137.511 219.188,137.511 219.188,113.375 
	226.016,113.375 226.016,122.168 233.533,122.168 233.533,113.375 240.361,113.375 240.361,137.511 "/>
<rect x="247.643" y="113.376" fill="#004E7E" width="6.828" height="24.136"/>
<polygon fill="#004E7E" points="261.749,137.511 261.749,113.375 268.506,113.375 268.506,131.684 279.195,131.684 279.195,137.511 
	"/>
<g>
	<g>
		<defs>
			<rect id="SVGID_47_" x="190.873" y="79.303" width="251.396" height="143.68"/>
		</defs>
		<clipPath id="SVGID_48_">
			<use xlink:href="#SVGID_47_"  overflow="visible"/>
		</clipPath>
		<path clip-path="url(#SVGID_48_)" fill="#004E7E" d="M293.579,119.1h-1.654v12.688h1.448c4.174,0,5.795-1.585,5.795-6.378
			C299.167,120.959,297.754,119.1,293.579,119.1 M292.992,137.511h-7.826v-24.136h8.449c7.585,0,12.414,2.861,12.414,11.93
			C306.029,134.372,301.545,137.511,292.992,137.511"/>
	</g>
	<g>
		<defs>
			<rect id="SVGID_49_" x="190.873" y="79.303" width="251.396" height="143.68"/>
		</defs>
		<clipPath id="SVGID_50_">
			<use xlink:href="#SVGID_49_"  overflow="visible"/>
		</clipPath>
		<path clip-path="url(#SVGID_50_)" fill="#004E7E" d="M322.896,118.822h-4.033v5.273h3.931c2.171,0,3.034-0.966,3.034-2.688
			C325.828,119.891,325,118.822,322.896,118.822 M325.48,137.511l-3.929-8.138h-2.688v8.138h-6.588v-24.136h10.793
			c5.656,0,9.414,2.135,9.414,7.861c0,3.623-1.688,5.861-4.346,7.068l4.827,9.206H325.48z"/>
	</g>
</g>
<polygon fill="#004E7E" points="339.177,137.511 339.177,113.375 357.66,113.375 357.66,118.997 345.796,118.997 345.796,122.201 
	352.936,122.201 352.936,127.754 345.796,127.754 345.796,131.891 357.9,131.891 357.9,137.511 "/>
<g>
	<g>
		<defs>
			<rect id="SVGID_51_" x="190.873" y="79.303" width="251.396" height="143.68"/>
		</defs>
		<clipPath id="SVGID_52_">
			<use xlink:href="#SVGID_51_"  overflow="visible"/>
		</clipPath>
		<path clip-path="url(#SVGID_52_)" fill="#004E7E" d="M380.113,137.511l-5.76-7.965c-1.068-1.483-3.139-4.587-3.758-5.655
			c0.174,1.068,0.206,4.276,0.206,6.241v7.379h-6.411v-24.136h5.896l5.31,7.137c1.105,1.484,3.241,4.688,3.762,5.689
			c-0.174-1.069-0.209-4.276-0.209-6.242v-6.585h6.414v24.136L380.113,137.511L380.113,137.511z"/>
	</g>
</g>
<polygon fill="#004E7E" points="396.672,124.338 392.432,124.338 392.913,113.376 399.98,113.376 "/>
<g>
	<g>
		<defs>
			<rect id="SVGID_53_" x="190.873" y="79.303" width="251.396" height="143.68"/>
		</defs>
		<clipPath id="SVGID_54_">
			<use xlink:href="#SVGID_53_"  overflow="visible"/>
		</clipPath>
		<path clip-path="url(#SVGID_54_)" fill="#004E7E" d="M414.026,137.891c-3.897,0-7.656-1.276-10.174-2.933l3.243-5.24
			c1.757,1.208,4.826,2.414,7.067,2.414c2.378,0,3.138-0.416,3.138-1.551c0-0.899-0.865-1.449-4.102-2.209
			c-5.83-1.345-8.621-2.931-8.621-7.759c0-4.549,3.688-7.62,9.516-7.62c4.104,0,7.069,1,9.62,2.793l-3.24,5.241
			c-2.136-1.449-4.277-2.274-6.726-2.274c-1.999,0-2.479,0.62-2.479,1.479c0,0.898,0.857,1.312,3.966,2.037
			c6.069,1.448,8.755,3.309,8.755,7.825C423.989,135.613,419.819,137.891,414.026,137.891"/>
	</g>
	<g>
		<defs>
			<rect id="SVGID_55_" x="190.873" y="79.303" width="251.396" height="143.68"/>
		</defs>
		<clipPath id="SVGID_56_">
			<use xlink:href="#SVGID_55_"  overflow="visible"/>
		</clipPath>
		<path clip-path="url(#SVGID_56_)" fill="#6EBE4A" d="M204.872,156.686c-0.585-1.724-1.552-4.518-1.827-5.552
			c-0.275,1.034-1.137,3.792-1.758,5.589l-1.93,5.514h7.445L204.872,156.686z M209.941,171.202l-2.033-5.724h-9.657l-1.999,5.724
			h-3.759l8.69-24.138h3.826l8.792,24.138H209.941z"/>
	</g>
	<g>
		<defs>
			<rect id="SVGID_57_" x="190.873" y="79.303" width="251.396" height="143.68"/>
		</defs>
		<clipPath id="SVGID_58_">
			<use xlink:href="#SVGID_57_"  overflow="visible"/>
		</clipPath>
		<path clip-path="url(#SVGID_58_)" fill="#6EBE4A" d="M228.256,171.581c-3.516,0-6.551-1.519-8.583-3.897l2.584-2.516
			c1.621,1.758,3.999,2.861,6.275,2.861c3.38,0,4.999-1.172,4.999-3.519c0-1.86-1.41-2.795-5.449-4.001
			c-5.1-1.515-7.548-2.791-7.548-7.1c0-4.174,3.515-6.725,7.964-6.725c3.275,0,5.76,1.205,7.898,3.272l-2.554,2.587
			c-1.519-1.554-3.241-2.311-5.622-2.311c-2.828,0-4.033,1.377-4.033,3c0,1.688,1.104,2.517,5.275,3.758
			c4.76,1.449,7.725,2.965,7.725,7.275C237.188,168.615,234.432,171.581,228.256,171.581"/>
	</g>
	<g>
		<defs>
			<rect id="SVGID_59_" x="190.873" y="79.303" width="251.396" height="143.68"/>
		</defs>
		<clipPath id="SVGID_60_">
			<use xlink:href="#SVGID_59_"  overflow="visible"/>
		</clipPath>
		<path clip-path="url(#SVGID_60_)" fill="#6EBE4A" d="M252.295,171.581c-3.516,0-6.55-1.519-8.584-3.897l2.585-2.516
			c1.621,1.758,3.999,2.861,6.276,2.861c3.38,0,4.998-1.172,4.998-3.519c0-1.86-1.412-2.795-5.447-4.001
			c-5.104-1.515-7.551-2.791-7.551-7.1c0-4.174,3.516-6.725,7.964-6.725c3.276,0,5.758,1.205,7.899,3.272l-2.555,2.587
			c-1.517-1.554-3.24-2.311-5.619-2.311c-2.83,0-4.035,1.377-4.035,3c0,1.688,1.104,2.517,5.275,3.758
			c4.757,1.449,7.723,2.965,7.723,7.275C261.227,168.615,258.469,171.581,252.295,171.581"/>
	</g>
	<g>
		<defs>
			<rect id="SVGID_61_" x="190.873" y="79.303" width="251.396" height="143.68"/>
		</defs>
		<clipPath id="SVGID_62_">
			<use xlink:href="#SVGID_61_"  overflow="visible"/>
		</clipPath>
		<path clip-path="url(#SVGID_62_)" fill="#6EBE4A" d="M278.163,150.305c-4.208,0-6.517,3.416-6.517,8.827
			c0,5.413,2.309,8.829,6.517,8.829c4.241,0,6.552-3.416,6.552-8.829C284.715,153.721,282.404,150.305,278.163,150.305
			 M278.163,171.581c-6.244,0-10.207-5.138-10.207-12.449c0-7.31,3.963-12.444,10.207-12.444c6.274,0,10.241,5.135,10.241,12.444
			C288.404,166.443,284.438,171.581,278.163,171.581"/>
	</g>
	<g>
		<defs>
			<rect id="SVGID_63_" x="190.873" y="79.303" width="251.396" height="143.68"/>
		</defs>
		<clipPath id="SVGID_64_">
			<use xlink:href="#SVGID_63_"  overflow="visible"/>
		</clipPath>
		<path clip-path="url(#SVGID_64_)" fill="#6EBE4A" d="M305.062,171.581c-6.24,0-10.205-5.138-10.205-12.449
			c0-7.31,3.965-12.444,10.205-12.444c3.932,0,6.554,1.586,8.209,4.516l-3.209,1.998c-1.242-1.965-2.517-2.896-5-2.896
			c-4.207,0-6.481,3.416-6.481,8.827c0,5.413,2.274,8.829,6.481,8.829c2.521,0,4.069-1.035,5.312-2.997l3,1.996
			C311.648,169.927,308.721,171.581,305.062,171.581"/>
	</g>
</g>
<rect x="321.208" y="147.064" fill="#6EBE4A" width="3.619" height="24.138"/>
<g>
	<g>
		<defs>
			<rect id="SVGID_65_" x="190.873" y="79.303" width="251.396" height="143.68"/>
		</defs>
		<clipPath id="SVGID_66_">
			<use xlink:href="#SVGID_65_"  overflow="visible"/>
		</clipPath>
		<path clip-path="url(#SVGID_66_)" fill="#6EBE4A" d="M345.857,156.686c-0.584-1.724-1.549-4.518-1.826-5.552
			c-0.277,1.034-1.137,3.792-1.76,5.589l-1.932,5.514h7.451L345.857,156.686z M350.925,171.202l-2.032-5.724h-9.656l-2.002,5.724
			h-3.758l8.69-24.138h3.828l8.793,24.138H350.925z"/>
	</g>
</g>
<polygon fill="#6EBE4A" points="368.6,150.618 368.6,171.202 364.98,171.202 364.98,150.618 357.945,150.618 357.945,147.064 
	375.635,147.064 375.635,150.618 "/>
<rect x="383.02" y="147.064" fill="#6EBE4A" width="3.621" height="24.138"/>
<g>
	<g>
		<defs>
			<rect id="SVGID_67_" x="190.873" y="79.303" width="251.396" height="143.68"/>
		</defs>
		<clipPath id="SVGID_68_">
			<use xlink:href="#SVGID_67_"  overflow="visible"/>
		</clipPath>
		<path clip-path="url(#SVGID_68_)" fill="#6EBE4A" d="M404.607,150.305c-4.207,0-6.518,3.416-6.518,8.827
			c0,5.413,2.311,8.829,6.518,8.829c4.241,0,6.553-3.416,6.553-8.829C411.16,153.721,408.849,150.305,404.607,150.305
			 M404.607,171.581c-6.239,0-10.207-5.138-10.207-12.449c0-7.31,3.968-12.444,10.207-12.444c6.277,0,10.242,5.135,10.242,12.444
			C414.85,166.443,410.885,171.581,404.607,171.581"/>
	</g>
	<g>
		<defs>
			<rect id="SVGID_69_" x="190.873" y="79.303" width="251.396" height="143.68"/>
		</defs>
		<clipPath id="SVGID_70_">
			<use xlink:href="#SVGID_69_"  overflow="visible"/>
		</clipPath>
		<path clip-path="url(#SVGID_70_)" fill="#6EBE4A" d="M437.336,171.202l-9.619-15.138c-0.589-0.896-1.415-2.344-1.793-2.967
			c0,0.896,0.032,4.239,0.032,5.586v12.519h-3.516v-24.138h3.688l9.176,14.725c0.617,0.999,1.653,2.792,1.998,3.413
			c0-0.894-0.036-4.347-0.036-5.688v-12.449h3.52v24.139L437.336,171.202L437.336,171.202z"/>
	</g>
</g>
<polygon fill="#004E7E" points="356.761,182.984 356.761,202.363 329.73,182.984 190.873,182.984 190.873,192.284 326.743,192.284 
	366.057,220.471 366.057,192.284 441.952,192.284 441.952,182.984 "/>
<g>
	<g>
		<defs>
			<rect id="SVGID_71_" x="190.873" y="79.303" width="251.396" height="143.68"/>
		</defs>
		<clipPath id="SVGID_72_">
			<use xlink:href="#SVGID_71_"  overflow="visible"/>
		</clipPath>
		<path clip-path="url(#SVGID_72_)" fill="#004E7E" d="M377.854,219.63c-1.621,0-2.674-0.845-3.41-2.101l1.418-1.145
			c0.701,1.106,1.309,1.439,2.103,1.439c0.978,0,1.55-0.59,1.55-1.641c0-0.996-0.425-1.567-2.158-2.713
			c-1.457-0.955-2.599-1.9-2.599-3.924c0-1.877,1.251-3.223,3.263-3.223c1.494,0,2.357,0.628,3.135,1.75l-1.329,1.179
			c-0.625-0.83-1.05-1.124-1.86-1.124c-0.865,0-1.346,0.553-1.346,1.365c0,0.956,0.443,1.488,1.882,2.412
			c1.603,1.031,2.875,2.027,2.875,4.185C381.375,218.152,380.141,219.63,377.854,219.63"/>
	</g>
	<g>
		<defs>
			<rect id="SVGID_73_" x="190.873" y="79.303" width="251.396" height="143.68"/>
		</defs>
		<clipPath id="SVGID_74_">
			<use xlink:href="#SVGID_73_"  overflow="visible"/>
		</clipPath>
		<path clip-path="url(#SVGID_74_)" fill="#004E7E" d="M383.253,209.752h1.771v9.675h-1.771V209.752z M384.139,208.241
			c-0.607,0-1.105-0.5-1.105-1.087c0-0.607,0.498-1.107,1.105-1.107c0.59,0,1.088,0.5,1.088,1.107
			C385.227,207.741,384.729,208.241,384.139,208.241"/>
	</g>
	<g>
		<defs>
			<rect id="SVGID_75_" x="190.873" y="79.303" width="251.396" height="143.68"/>
		</defs>
		<clipPath id="SVGID_76_">
			<use xlink:href="#SVGID_75_"  overflow="visible"/>
		</clipPath>
		<path clip-path="url(#SVGID_76_)" fill="#004E7E" d="M391.619,219.427v-5.954c0-1.603-0.312-2.248-1.198-2.248
			c-0.549,0-1.086,0.315-1.437,0.889v7.313h-1.77v-9.675h1.77v0.66c0.387-0.497,1.053-0.863,1.881-0.863
			c1.861,0,2.525,1.197,2.525,3.631v6.247H391.619z"/>
	</g>
	<g>
		<defs>
			<rect id="SVGID_77_" x="190.873" y="79.303" width="251.396" height="143.68"/>
		</defs>
		<clipPath id="SVGID_78_">
			<use xlink:href="#SVGID_77_"  overflow="visible"/>
		</clipPath>
		<path clip-path="url(#SVGID_78_)" fill="#004E7E" d="M398.477,219.63c-2.008,0-3.373-1.603-3.373-4.995
			c0-3.392,1.288-5.086,3.445-5.086c1.4,0,2.173,0.758,2.73,1.694l-1.272,1.108c-0.499-0.795-0.887-1.108-1.514-1.108
			c-1.125,0-1.604,1.235-1.604,3.354c0,2.045,0.497,3.336,1.658,3.336c0.588,0,0.996-0.312,1.476-1.069l1.271,1.053
			C400.65,218.93,399.876,219.63,398.477,219.63"/>
	</g>
	<g>
		<defs>
			<rect id="SVGID_79_" x="190.873" y="79.303" width="251.396" height="143.68"/>
		</defs>
		<clipPath id="SVGID_80_">
			<use xlink:href="#SVGID_79_"  overflow="visible"/>
		</clipPath>
		<path clip-path="url(#SVGID_80_)" fill="#004E7E" d="M406.069,211.21c-0.902,0-1.473,0.791-1.621,2.451h3.26
			C407.654,212.223,407.065,211.21,406.069,211.21 M409.498,215.189h-5.069c0.111,1.916,0.793,2.744,1.824,2.744
			c0.812,0,1.199-0.203,1.753-0.718l1.086,1.124c-0.663,0.735-1.64,1.289-2.875,1.289c-2.3,0-3.559-1.954-3.559-4.995
			c0-3.392,1.401-5.086,3.45-5.086c1.934,0,3.405,1.64,3.405,5.013C409.514,214.727,409.514,215.002,409.498,215.189"/>
	</g>
	<g>
		<defs>
			<rect id="SVGID_81_" x="190.873" y="79.303" width="251.396" height="143.68"/>
		</defs>
		<clipPath id="SVGID_82_">
			<use xlink:href="#SVGID_81_"  overflow="visible"/>
		</clipPath>
		<path clip-path="url(#SVGID_82_)" fill="#004E7E" d="M416.372,219.427v-10.151h-1.733v-1.256c1.162-0.145,1.771-0.515,2.045-1.492
			h1.477v12.899H416.372z"/>
	</g>
	<g>
		<defs>
			<rect id="SVGID_83_" x="190.873" y="79.303" width="251.396" height="143.68"/>
		</defs>
		<clipPath id="SVGID_84_">
			<use xlink:href="#SVGID_83_"  overflow="visible"/>
		</clipPath>
		<path clip-path="url(#SVGID_84_)" fill="#004E7E" d="M423.615,208.038c-1.216,0-1.899,0.938-1.899,2.435
			c0,1.36,0.704,2.301,1.899,2.301c1.164,0,1.826-0.902,1.826-2.414C425.441,208.999,424.779,208.038,423.615,208.038
			 M421.366,219.63v-1.694c2.196-0.275,3.559-2.084,3.909-4.273c-0.478,0.531-1.124,0.83-2.027,0.83
			c-1.954,0-3.281-1.643-3.281-3.98c0-2.544,1.455-4.185,3.759-4.185c2.046,0,3.466,1.438,3.466,4.769
			C427.19,216.055,425.146,219.279,421.366,219.63"/>
	</g>
	<g>
		<defs>
			<rect id="SVGID_85_" x="190.873" y="79.303" width="251.396" height="143.68"/>
		</defs>
		<clipPath id="SVGID_86_">
			<use xlink:href="#SVGID_85_"  overflow="visible"/>
		</clipPath>
		<path clip-path="url(#SVGID_86_)" fill="#004E7E" d="M430.066,219.427v-10.151h-1.733v-1.256c1.161-0.145,1.771-0.515,2.044-1.492
			h1.477v12.899H430.066z"/>
	</g>
	<g>
		<defs>
			<rect id="SVGID_87_" x="190.873" y="79.303" width="251.396" height="143.68"/>
		</defs>
		<clipPath id="SVGID_88_">
			<use xlink:href="#SVGID_87_"  overflow="visible"/>
		</clipPath>
		<path clip-path="url(#SVGID_88_)" fill="#004E7E" d="M437.643,211.133l-1.255,2.051c-0.366,0.607-0.607,0.993-0.902,1.435
			c0.37,0,0.811-0.021,1.329-0.021h1.75v-3.354c0-0.623,0.033-1.196,0.057-1.84C438.325,209.936,438.028,210.511,437.643,211.133
			 M440.312,216.314v3.111h-1.748v-3.111h-4.997v-1.42l5.03-8.367h1.715v8.07h0.886v1.717H440.312L440.312,216.314z"/>
	</g>
</g>
</svg>
